<?xml version="1.0" encoding="utf-8"?>
<svg version="1.1" xmlns:xlink="http://www.w3.org/1999/xlink" width="12px" height="12px" viewBox="264 326.5  12 12" xmlns="http://www.w3.org/2000/svg">
  <path d="M 270 326.5  C 273.36 326.5  276 329.14  276 332.5  C 276 335.86  273.36 338.5  270 338.5  C 266.64 338.5  264 335.86  264 332.5  C 264 329.14  266.64 326.5  270 326.5  Z " fill-rule="nonzero" fill="#ffffff" stroke="none" />
  <path d="M 270 327  C 273.08 327  275.5 329.42  275.5 332.5  C 275.5 335.58  273.08 338  270 338  C 266.92 338  264.5 335.58  264.5 332.5  C 264.5 329.42  266.92 327  270 327  Z " stroke-width="1" stroke="#797979" fill="none" />
  <path d="M 270 335.5  C 268.32 335.5  267 334.18  267 332.5  C 267 330.82  268.32 329.5  270 329.5  C 271.68 329.5  273 330.82  273 332.5  C 273 334.18  271.68 335.5  270 335.5  " fill-rule="nonzero" fill="#797979" stroke="none" />
</svg>