<?xml version="1.0" encoding="utf-8"?>
<svg version="1.1" xmlns:xlink="http://www.w3.org/1999/xlink" width="12px" height="12px" viewBox="264 353.5  12 12" xmlns="http://www.w3.org/2000/svg">
  <path d="M 270 353.5  C 273.36 353.5  276 356.14  276 359.5  C 276 362.86  273.36 365.5  270 365.5  C 266.64 365.5  264 362.86  264 359.5  C 264 356.14  266.64 353.5  270 353.5  Z " fill-rule="nonzero" fill="#ffffff" stroke="none" />
  <path d="M 270 354  C 273.08 354  275.5 356.42  275.5 359.5  C 275.5 362.58  273.08 365  270 365  C 266.92 365  264.5 362.58  264.5 359.5  C 264.5 356.42  266.92 354  270 354  Z " stroke-width="1" stroke="#797979" fill="none" />
  <path d="M 270 362.5  C 268.32 362.5  267 361.18  267 359.5  C 267 357.82  268.32 356.5  270 356.5  C 271.68 356.5  273 357.82  273 359.5  C 273 361.18  271.68 362.5  270 362.5  " fill-rule="nonzero" fill="#797979" stroke="none" />
</svg>