<?xml version="1.0" encoding="utf-8"?>
<svg version="1.1" xmlns:xlink="http://www.w3.org/1999/xlink" width="12px" height="12px" viewBox="345 407.5  12 12" xmlns="http://www.w3.org/2000/svg">
  <path d="M 351 407.5  C 354.36 407.5  357 410.14  357 413.5  C 357 416.86  354.36 419.5  351 419.5  C 347.64 419.5  345 416.86  345 413.5  C 345 410.14  347.64 407.5  351 407.5  Z " fill-rule="nonzero" fill="#ffffff" stroke="none" />
  <path d="M 351 408  C 354.08 408  356.5 410.42  356.5 413.5  C 356.5 416.58  354.08 419  351 419  C 347.92 419  345.5 416.58  345.5 413.5  C 345.5 410.42  347.92 408  351 408  Z " stroke-width="1" stroke="#797979" fill="none" />
  <path d="M 351 416.5  C 349.32 416.5  348 415.18  348 413.5  C 348 411.82  349.32 410.5  351 410.5  C 352.68 410.5  354 411.82  354 413.5  C 354 415.18  352.68 416.5  351 416.5  " fill-rule="nonzero" fill="#797979" stroke="none" />
</svg>